<svg width="16" height="16" viewBox="0 0 16 16" fill="none" xmlns="http://www.w3.org/2000/svg">
<circle cx="8" cy="8" r="7" fill="#368F52"/>
<path d="M7.39564 13V11.7099H8.7078V13H7.39564ZM7.39564 4.29015V3H8.7078V4.29015H7.39564ZM8.08167 12.08C7.52995 12.08 7.0363 11.9784 6.60073 11.7752C6.16515 11.5719 5.80762 11.2852 5.52813 10.9151C5.25227 10.5449 5.07623 10.1058 5 9.59771L6.29583 9.39085C6.39746 9.83723 6.61524 10.1929 6.94918 10.4578C7.28675 10.7191 7.68965 10.8498 8.15789 10.8498C8.60799 10.8498 8.97822 10.7445 9.2686 10.534C9.55898 10.3199 9.70417 10.0495 9.70417 9.72292C9.70417 9.49428 9.63521 9.3092 9.49728 9.16767C9.35935 9.0225 9.13793 8.90274 8.83303 8.80838L6.94374 8.22047C5.84392 7.87933 5.29401 7.21158 5.29401 6.2172C5.29401 5.75268 5.40472 5.34803 5.62613 5.00327C5.85118 4.65487 6.16697 4.38813 6.5735 4.20305C6.98004 4.01434 7.45916 3.92179 8.01089 3.92542C8.52269 3.92905 8.97822 4.02159 9.3775 4.20305C9.7804 4.3845 10.1143 4.6458 10.3793 4.98694C10.6479 5.32807 10.8385 5.73816 10.951 6.2172L9.60617 6.46217C9.55535 6.2045 9.45554 5.97768 9.30672 5.78171C9.15789 5.58574 8.97096 5.43331 8.74592 5.32444C8.52087 5.21557 8.27042 5.1575 7.99456 5.15025C7.72958 5.14662 7.49183 5.18835 7.28131 5.27545C7.07078 5.35892 6.90381 5.47868 6.7804 5.63473C6.65699 5.78715 6.59528 5.95954 6.59528 6.15188C6.59528 6.366 6.68058 6.54927 6.85118 6.70169C7.02541 6.85411 7.29946 6.98476 7.67332 7.09363L9.08348 7.50191C9.76225 7.69788 10.2505 7.96462 10.5481 8.30212C10.8494 8.636 11 9.08057 11 9.63582C11 10.1221 10.8784 10.5485 10.6352 10.9151C10.392 11.2816 10.0508 11.5683 9.61162 11.7752C9.17241 11.9784 8.66243 12.08 8.08167 12.08Z" fill="white"/>
</svg>
