<svg width="100" height="25" viewBox="0 0 100 25" fill="none" xmlns="http://www.w3.org/2000/svg">
<path d="M21.194 16.6054C21.6255 14.7139 21.5435 12.7428 20.96 10.9049L20.9539 10.8865C20.8339 10.4102 20.653 9.95375 20.416 9.52184C20.0939 8.93678 19.676 8.4191 19.1852 7.9872C19.1184 7.92593 19.0485 7.86773 18.977 7.81106C18.4239 7.36844 17.7903 7.02996 17.108 6.8186C16.9804 6.77878 16.8497 6.74355 16.7175 6.71292C16.6127 6.68842 16.5063 6.66697 16.4015 6.64859C16.0049 6.57967 15.6053 6.55517 15.2087 6.57202C15.0506 6.57814 14.8941 6.59039 14.7391 6.61184C14.5826 6.63022 14.4276 6.65625 14.2727 6.68995H14.2711C14.1177 6.72211 13.9642 6.76193 13.8138 6.80788C13.7484 6.82779 13.6846 6.8477 13.6208 6.87067C13.6086 6.87374 13.598 6.8768 13.5889 6.88139C15.1312 7.49096 16.4395 8.58298 17.3314 10.0165C18.4346 11.7932 18.7856 13.8976 18.3191 15.9392C18.1869 16.5166 17.9939 17.0741 17.7386 17.6009C17.6277 17.8368 17.5046 18.0665 17.3679 18.2901C17.2099 18.549 17.0382 18.7986 16.8528 19.0345C16.8102 19.0896 16.7677 19.1448 16.7221 19.1984C16.5732 19.3791 16.4152 19.5537 16.2495 19.7191C16.2024 19.7681 16.1553 19.8141 16.1067 19.86C16.0672 19.8998 16.0262 19.9366 15.9851 19.9749C15.6417 20.2904 15.2664 20.5753 14.8637 20.8295C13.1011 21.9414 11.0148 22.2952 8.98935 21.825C6.71921 21.2982 4.81679 19.788 3.77289 17.6806C3.59511 17.2931 3.43556 16.8933 3.29577 16.4844L3.27298 16.4094C2.51626 14.1533 2.39774 11.7288 2.92957 9.39625C2.96148 9.25535 2.99643 9.11597 3.03289 8.9766C3.05721 8.8847 3.08152 8.79281 3.10887 8.70244C3.14838 8.56154 3.1894 8.42217 3.23499 8.28432C3.26994 8.17405 3.30792 8.06378 3.34591 7.9535C3.37782 7.86008 3.41277 7.76818 3.44772 7.67782C3.46747 7.62268 3.48875 7.56754 3.51002 7.51394C3.54953 7.41285 3.58903 7.3133 3.63158 7.21528C3.67716 7.10501 3.72579 6.99626 3.77593 6.88752C3.78201 6.87221 3.78809 6.85842 3.79568 6.84464C3.83215 6.76346 3.87014 6.68229 3.91117 6.60265C3.96891 6.47706 4.03273 6.353 4.09807 6.23047C4.14213 6.1493 4.1862 6.06659 4.23178 5.98542C4.27585 5.90425 4.32295 5.82307 4.37006 5.7419C4.46427 5.58108 4.56151 5.4218 4.66332 5.26404H4.6618C2.45244 6.7895 0.882798 9.08534 0.274997 11.7534C-1.05305 17.5672 2.56033 23.3842 8.32684 24.7228C10.17 25.1501 12.0922 25.0827 13.8821 24.5267C14.7741 24.2495 15.6311 23.8528 16.4288 23.349C18.8585 21.8174 20.5497 19.422 21.194 16.6054Z" fill="#3D72D6"/>
<path d="M25.7798 5.77712C24.0491 2.98965 21.349 1.04913 18.1778 0.313974C17.2797 0.105679 16.3589 0 15.4411 0C11.8323 0 8.42408 1.6051 6.09012 4.4033C4.84261 5.89812 3.98865 7.62727 3.55103 9.54022C3.042 11.7717 3.16052 14.0905 3.88988 16.247L3.90811 16.3037C4.03575 16.682 4.1877 17.0542 4.34269 17.3926C4.34269 17.3957 4.34573 17.3988 4.34725 17.4018C4.40195 17.5106 4.45817 17.6193 4.51743 17.725C4.58885 17.8521 4.66331 17.9762 4.7408 18.0987C4.79398 18.1829 4.85021 18.2641 4.90643 18.3453C4.99152 18.4663 5.07965 18.5842 5.17234 18.6991C5.26503 18.8139 5.36076 18.9273 5.45801 19.036C5.50207 19.085 5.54766 19.134 5.59324 19.1831C5.95488 19.5598 6.35603 19.8968 6.78909 20.1862C6.89698 20.2582 7.0079 20.3271 7.12034 20.3945C7.23279 20.4604 7.34675 20.5247 7.46375 20.5844C7.98646 20.8555 8.54564 21.0623 9.13216 21.1986C10.992 21.6305 12.9081 21.3058 14.5249 20.2843C14.6115 20.2307 14.6951 20.174 14.7786 20.1173C14.7862 20.1127 14.7923 20.1066 14.7999 20.102C14.882 20.0453 14.961 19.9887 15.04 19.9289C15.0415 19.9274 15.0446 19.9243 15.0476 19.9228C15.1144 19.8723 15.1798 19.8217 15.2436 19.7681C15.274 19.7436 15.3029 19.7206 15.3317 19.6946C15.3424 19.6869 15.3515 19.6793 15.3621 19.6701C15.4183 19.6211 15.4746 19.5721 15.5293 19.5231C15.587 19.471 15.6432 19.4189 15.6979 19.3638C15.7344 19.3301 15.7709 19.2949 15.8058 19.2581C15.8575 19.2076 15.9061 19.1555 15.9547 19.1019C15.9806 19.0758 16.0049 19.0498 16.0261 19.0222C16.0641 18.9839 16.0976 18.9457 16.1295 18.9074C16.1629 18.8706 16.1948 18.8323 16.2252 18.794C16.2769 18.7328 16.327 18.67 16.3756 18.6072C15.5976 18.722 14.7984 18.6914 14.0234 18.5122C12.3778 18.1309 10.9768 17.1246 10.0803 15.6819C9.18383 14.2376 8.89968 12.5283 9.27804 10.8696C9.63816 9.29517 10.5711 7.93053 11.8825 7.03302C12.0937 6.88752 12.314 6.75427 12.545 6.63481C13.873 5.94253 15.4047 5.74802 16.8604 6.0865C18.6032 6.48931 20.103 7.62881 20.9736 9.21093C20.9767 9.21552 20.9797 9.22165 20.9812 9.22624C21.2107 9.7041 21.4082 10.2034 21.5663 10.7088C21.5678 10.7119 21.5678 10.7149 21.5693 10.718C21.6589 10.9983 21.7364 11.2816 21.8033 11.568C21.8519 11.7809 21.896 11.9953 21.934 12.2098C22.1953 13.7077 22.1558 15.253 21.8155 16.7494C21.1332 19.7329 19.3402 22.2707 16.7677 23.8942C16.3483 24.1576 15.9137 24.395 15.467 24.6018C17.7386 24.6018 19.9693 23.9524 21.9157 22.7241C24.6782 20.9811 26.6019 18.2595 27.3343 15.057C28.0637 11.8606 27.5121 8.5646 25.7798 5.77712Z" fill="#043278"/>
<path d="M32.7148 13.7674C32.7148 10.136 34.7236 7.99485 37.6244 7.99485C40.5251 7.99485 42.5339 10.1467 42.5339 13.7674C42.5339 17.388 40.5251 19.6287 37.6244 19.6287C34.7236 19.6287 32.7148 17.3988 32.7148 13.7674ZM40.5038 13.7674C40.5038 11.2479 39.3733 9.72554 37.6228 9.72554C35.8724 9.72554 34.7419 11.2495 34.7419 13.7674C34.7419 16.2853 35.8724 17.8996 37.6228 17.8996C39.3733 17.8996 40.5038 16.2868 40.5038 13.7674Z" fill="#043278"/>
<path d="M44.0244 10.9937H45.632L45.7825 11.8927H45.8372C46.5422 11.2816 47.4372 10.7885 48.3565 10.7885C50.4473 10.7885 51.6447 12.4763 51.6447 15.0784C51.6447 17.9609 49.9353 19.6287 48.0769 19.6287C47.3354 19.6287 46.606 19.2918 45.9253 18.7021L45.9861 20.102V22.7578H44.0244V10.9937ZM49.6283 15.0983C49.6283 13.4167 49.0844 12.4211 47.811 12.4211C47.2047 12.4211 46.6334 12.7305 45.9861 13.3676V17.2931C46.5848 17.8077 47.1774 17.993 47.6606 17.993C48.7774 17.993 49.6283 17.0051 49.6283 15.0968V15.0983Z" fill="#043278"/>
<path d="M53.0731 15.2147C53.0731 12.4763 54.9588 10.7885 56.9265 10.7885C59.1875 10.7885 60.3788 12.4349 60.3788 14.7905C60.3788 15.1672 60.3378 15.5455 60.2937 15.7508H54.9861C55.1502 17.2471 56.1029 18.0987 57.4507 18.0987C58.1664 18.0987 58.7788 17.872 59.3911 17.4876L60.0582 18.7159C59.262 19.2581 58.253 19.6287 57.1909 19.6287C54.8828 19.6287 53.0715 17.9945 53.0715 15.2163L53.0731 15.2147ZM58.6831 14.4045C58.6831 13.1073 58.1117 12.3185 56.9675 12.3185C55.9935 12.3185 55.1365 13.0521 54.9664 14.4045H58.6846H58.6831Z" fill="#043278"/>
<path d="M62.2554 10.9937H63.863L64.0134 12.1332H64.0681C64.8173 11.3996 65.6682 10.7885 66.8124 10.7885C68.6039 10.7885 69.3864 12.0107 69.3864 14.138V19.4235H67.4247V14.3923C67.4247 13.0062 67.0297 12.4839 66.124 12.4839C65.3886 12.4839 64.9054 12.8484 64.217 13.5346V19.4235H62.2554V10.9952V10.9937Z" fill="#043278"/>
<path d="M70.9697 8.20009H74.5314C76.8198 8.20009 78.5004 8.90768 78.5004 10.9661C78.5004 12.0229 77.9291 13.0521 76.9551 13.3952V13.4641C78.1874 13.7459 79.093 14.6098 79.093 16.1276C79.093 18.3713 77.2681 19.422 74.8171 19.422H70.9697V8.20009ZM74.3537 12.8331C75.9066 12.8331 76.5661 12.222 76.5661 11.2479C76.5661 10.1636 75.8382 9.75158 74.3947 9.75158H72.9451V12.8331H74.3552H74.3537ZM74.612 17.8705C76.2454 17.8705 77.1587 17.2808 77.1587 16.0173C77.1587 14.8364 76.2728 14.3218 74.612 14.3218H72.9436V17.8705H74.612Z" fill="#043278"/>
<path d="M80.6902 8.20009H84.1972C86.6694 8.20009 88.5004 9.06543 88.5004 11.6584C88.5004 14.2514 86.6618 15.2959 84.2656 15.2959H82.6655V19.4205H80.6902V8.20009ZM84.1015 13.7046C85.7623 13.7046 86.5524 13.0384 86.5524 11.6599C86.5524 10.2815 85.6878 9.79293 84.0331 9.79293H82.664V13.7046H84.1015Z" fill="#043278"/>
<path d="M90.1536 8.20009H92.3872L94.355 13.6831C94.5996 14.3969 94.8245 15.1519 95.0707 15.8856H95.1391C95.3837 15.1519 95.5949 14.3969 95.8411 13.6831L97.7678 8.20009H100.001V19.422H98.1902V14.2881C98.1902 13.2512 98.3467 11.7595 98.4425 10.7195H98.3741L97.4745 13.3278L95.6435 18.3683H94.472L92.6334 13.3278L91.7475 10.7195H91.6791C91.7749 11.7595 91.9314 13.2528 91.9314 14.2881V19.422H90.1536V8.20009Z" fill="#043278"/>
</svg>
