<svg width="24" height="24" viewBox="0 0 24 24" fill="none" xmlns="http://www.w3.org/2000/svg">
    <path d="M15.5706 8.12903C14.9859 4.52823 13.6069 2 12.002 2C10.3972 2 9.01814 4.52823 8.43347 8.12903H15.5706ZM8.13105 12C8.13105 12.8952 8.17943 13.754 8.26411 14.5806H15.7359C15.8206 13.754 15.8689 12.8952 15.8689 12C15.8689 11.1048 15.8206 10.246 15.7359 9.41935H8.26411C8.17943 10.246 8.13105 11.1048 8.13105 12ZM21.2238 8.12903C20.0706 5.39113 17.7359 3.27419 14.8528 2.41935C15.8367 3.78226 16.5141 5.83468 16.869 8.12903H21.2238ZM9.14718 2.41935C6.26814 3.27419 3.92943 5.39113 2.78024 8.12903H7.13508C7.48589 5.83468 8.1633 3.78226 9.14718 2.41935ZM21.6552 9.41935H17.0302C17.1149 10.2661 17.1633 11.1331 17.1633 12C17.1633 12.8669 17.1149 13.7339 17.0302 14.5806H21.6512C21.873 13.754 21.998 12.8952 21.998 12C21.998 11.1048 21.873 10.246 21.6552 9.41935ZM6.84072 12C6.84072 11.1331 6.88911 10.2661 6.97379 9.41935H2.34879C2.13105 10.246 2.00201 11.1048 2.00201 12C2.00201 12.8952 2.13105 13.754 2.34879 14.5806H6.96976C6.88911 13.7339 6.84072 12.8669 6.84072 12ZM8.43347 15.871C9.01814 19.4718 10.3972 22 12.002 22C13.6069 22 14.9859 19.4718 15.5706 15.871H8.43347ZM14.8569 21.5806C17.7359 20.7258 20.0746 18.6089 21.2278 15.871H16.873C16.5181 18.1653 15.8407 20.2177 14.8569 21.5806ZM2.78024 15.871C3.93347 18.6089 6.26814 20.7258 9.15121 21.5806C8.16734 20.2177 7.48992 18.1653 7.13508 15.871H2.78024Z"
          fill="#368f52"/>
</svg>
